# Blender v3.3.1 OBJ File: 'crate.blend'
# www.blender.org
mtllib crate.mtl
o Cube
v 1.000000 1.000000 -1.000000
v 1.000000 -1.000000 -1.000000
v 1.000000 1.000000 1.000000
v 1.000000 -1.000000 1.000000
v -1.000000 1.000000 -1.000000
v -1.000000 -1.000000 -1.000000
v -1.000000 1.000000 1.000000
v -1.000000 -1.000000 1.000000
v 3.000000 1.000000 -1.000000
v 3.000000 -1.000000 -1.000000
v 3.000000 1.000000 1.000000
v 3.000000 -1.000000 1.000000
v 1.000000 3.000000 -1.000000
v 1.000000 3.000000 1.000000
v 3.000000 3.000000 -1.000000
v 3.000000 3.000000 1.000000
v 1.000000 1.000000 3.000000
v 1.000000 -1.000000 3.000000
v 3.000000 1.000000 3.000000
v 3.000000 -1.000000 3.000000
vt -1.999818 0.999964
vt -0.999891 0.999964
vt -0.999891 1.999891
vt -1.999818 1.999891
vt 2.999818 -0.999891
vt 1.999891 -0.999891
vt 1.999891 -1.999819
vt 2.999818 -1.999819
vt -0.999891 1.999891
vt -0.999891 2.999819
vt -1.999818 2.999818
vt -1.999818 1.999891
vt 0.000036 -1.999819
vt 0.999964 -1.999819
vt 0.999964 -0.999891
vt 0.000036 -0.999891
vt -0.999891 -0.999891
vt -0.999891 0.000037
vt -1.999818 0.000037
vt -1.999818 -0.999891
vt 0.000037 0.000037
vt -0.999891 0.000037
vt 0.000037 -0.999891
vt 1.999892 0.000037
vt 1.999892 0.999964
vt 0.999965 0.999964
vt 0.999965 0.000037
vt 1.999891 -0.999891
vt 1.999891 0.000037
vt 0.999964 0.000036
vt -0.999891 -1.999819
vt 0.000037 -1.999819
vt 1.999891 -1.999819
vt 0.999965 1.999891
vt 0.999965 2.999818
vt 0.000037 2.999818
vt 0.000037 1.999891
vt -0.999891 0.999963
vt -1.999818 0.999963
vt 1.999892 1.999891
vt 0.999965 1.999891
vt -1.999818 -1.999819
vt -0.999891 1.999891
vt -0.999891 0.999963
vt 0.000037 0.999963
vt 0.000037 1.999891
vt -0.999891 1.999891
vt 0.000037 1.999891
vt 0.000037 2.999818
vt -0.999891 2.999818
vt 2.999818 0.000036
vt 1.999891 0.000036
vt 0.000037 0.999964
vt 0.000037 0.000037
vn 0.0000 1.0000 0.0000
vn 0.0000 0.0000 1.0000
vn -1.0000 0.0000 0.0000
vn 0.0000 -1.0000 0.0000
vn 0.0000 0.0000 -1.0000
vn 1.0000 0.0000 0.0000
usemtl Material
s off
f 1/1/1 5/2/1 7/3/1 3/4/1
f 4/5/2 3/6/2 7/7/2 8/8/2
f 8/9/3 7/10/3 5/11/3 6/12/3
f 6/13/4 2/14/4 4/15/4 8/16/4
f 1/17/3 3/18/3 14/19/3 13/20/3
f 6/21/5 5/22/5 1/17/5 2/23/5
f 10/24/6 9/25/6 11/26/6 12/27/6
f 4/15/4 12/28/4 20/29/4 18/30/4
f 2/23/5 1/17/5 9/31/5 10/32/5
f 4/15/4 2/14/4 10/33/4 12/28/4
f 13/34/1 14/35/1 16/36/1 15/37/1
f 3/18/2 11/38/2 16/39/2 14/19/2
f 11/26/6 9/25/6 15/40/6 16/41/6
f 9/31/5 1/17/5 13/20/5 15/42/5
f 17/43/2 18/44/2 20/45/2 19/46/2
f 11/47/1 3/48/1 17/49/1 19/50/1
f 3/6/3 4/5/3 18/51/3 17/52/3
f 12/27/6 11/26/6 19/53/6 20/54/6
